<svg version="1.1" id="Layer_1" xmlns="http://www.w3.org/2000/svg" xmlns:xlink="http://www.w3.org/1999/xlink" x="0px" y="0px"
	 width="144px" height="144px" viewBox="0 0 144 144" enable-background="new 0 0 144 144" xml:space="preserve">
<g>
	<g>
		<path d="M67.977,6.232c-0.118,0.087-0.263,0.205-0.409,0.351c-0.176,0.175-0.38,0.379-0.585,0.555
			c-0.263,0.292-0.525,0.614-0.73,0.936c-0.205,0.379-0.38,1.11-0.643,2.191c-0.234,1.052-0.321,3.477-0.234,7.305v95.546
			c-0.087-0.176-0.146-0.35-0.234-0.555c-0.672-1.549-1.228-3.155-1.666-4.792c-0.35-1.344-0.73-2.717-1.11-4.12
			c-0.38-1.461-0.701-2.98-0.994-4.558c-0.174-1.11-0.409-2.221-0.613-3.272c-0.293-1.49-0.584-3.01-0.936-4.528
			c-0.321-1.433-0.643-2.952-1.023-4.413c-1.52-5.61-3.039-9.35-4.44-11.19c-1.432-1.871-3.361-2.631-5.786-2.338
			c-2.455,0.292-3.71,1.986-3.77,5.055c-0.087,3.068,0.205,5.377,0.789,6.983c0.556,1.577,1.052,3.127,1.432,4.646
			c0.146,0.672,0.321,1.314,0.497,2.016c0.233,0.994,0.496,1.986,0.73,2.98c0.264,0.905,0.498,1.841,0.76,2.805
			c0.409,1.666,0.876,3.332,1.344,5.025c0.351,1.403,0.76,2.835,1.168,4.237c0.469,1.665,0.994,3.301,1.55,4.938
			c0.409,1.257,0.963,2.543,1.665,3.771c0.702,1.197,1.49,2.307,2.279,3.447c2.542,3.184,5.318,5.581,8.357,7.217v8.649
			c0,0.233,0,0.467,0.058,0.701c0.38,0.35,0.731,0.672,1.141,0.992c4.411,3.156,8.269,2.836,11.512-0.992
			c0.058-0.234,0.087-0.468,0.087-0.701V99.616C88.255,96.812,92.55,79.864,91.09,48.775c-0.089-1.49-0.438-2.542-1.111-3.214
			c-0.876-0.876-1.958-1.344-3.213-1.344c-1.228,0-2.367,0.38-3.39,1.081c-1.023,0.701-1.433,1.986-1.256,3.915
			c1.634,25.041,0.349,39.679-3.946,43.917V18.271c0.146-3.389,0.234-5.376,0.234-5.99c0-2.016-0.673-3.74-1.958-5.143
			c-0.877-0.935-1.869-1.549-2.979-1.87c-0.468-0.117-0.936-0.175-1.403-0.205c-0.116-0.029-0.233-0.029-0.351-0.029
			c-0.145,0-0.263,0-0.379,0.029c-1.14,0.059-2.192,0.38-3.098,0.994C68.152,6.115,68.065,6.174,67.977,6.232z"/>
	</g>
	<g>
		<path d="M65.376,50.265c-0.584-0.087-2.016-0.292-4.178-0.643c2.746,0.73,4.499,1.666,5.23,2.688v-3.214
			C66.311,49.944,65.932,50.324,65.376,50.265z"/>
		<path d="M65.435,53.1c-0.467,0.059-1.578,0.175-3.331,0.351c2.279,0.029,3.798,0.379,4.616,1.022l-0.672-2.483
			C66.106,52.691,65.902,53.042,65.435,53.1z"/>
		<path d="M65.639,57.103c-0.233-0.292-0.73-0.994-1.52-2.075c0.467,0.848,0.79,1.578,0.994,2.221
			c-0.498-0.205-1.548-0.672-3.185-1.402c1.606,0.935,2.718,1.812,3.301,2.63c0.088,0.146,0.146,0.263,0.234,0.409
			c0.059,0.088,0.117,0.205,0.146,0.322l0.409-1.549l0.614-0.584c-0.205,0.146-0.351,0.234-0.498,0.263l0.206-0.76
			c-0.175,0.322-0.351,0.555-0.526,0.672C65.728,57.22,65.668,57.161,65.639,57.103z"/>
		<path d="M65.757,61.456c0.087,0.088,0.116,0.176,0.205,0.263v-1.373l0.38-0.614c-0.146,0.146-0.264,0.233-0.38,0.292l-0.029-0.643
			c-0.059,0.292-0.117,0.526-0.264,0.643c-0.058-0.029-0.117-0.059-0.176-0.087c-0.233-0.175-0.788-0.613-1.694-1.374
			c0.555,0.584,1.022,1.14,1.286,1.637c-0.468-0.088-1.432-0.234-2.922-0.468c1.52,0.409,2.63,0.876,3.302,1.461
			C65.552,61.281,65.668,61.369,65.757,61.456z"/>
		<path d="M65.289,61.339c0.146,0.497,0.087,0.818-0.234,0.964c-0.35,0.146-1.168,0.438-2.396,0.935
			c1.695-0.467,2.864-0.526,3.594-0.205L65.289,61.339z"/>
		<path d="M65.084,67.212c-0.584-0.233-1.958-0.847-4.121-1.812c2.63,1.549,4.208,2.952,4.675,4.236l0.876-3.301
			C66.136,67.154,65.668,67.475,65.084,67.212z"/>
		<path d="M66.136,71.127c-0.234,0.468-0.497,0.643-0.817,0.497c-0.351-0.117-1.11-0.467-2.367-1.022
			c1.519,0.876,2.425,1.694,2.688,2.454L66.136,71.127z"/>
		<path d="M65.844,9.359l0.965-1.695c-0.731,0.321-1.929,0.263-3.594-0.176c1.228,0.497,2.045,0.789,2.396,0.935
			C65.902,8.57,65.99,8.862,65.844,9.359z"/>
		<path d="M66.516,9.008c-0.087,0.087-0.116,0.175-0.205,0.263c-0.087,0.058-0.205,0.175-0.292,0.263
			c-0.672,0.555-1.782,1.052-3.302,1.461c1.49-0.234,2.454-0.409,2.921-0.468c-0.263,0.468-0.73,1.023-1.286,1.637
			c0.906-0.76,1.461-1.228,1.695-1.403c0.058-0.029,0.118-0.058,0.176-0.087c0.146,0.117,0.205,0.379,0.263,0.672l0.029-0.643
			c0.118,0.029,0.234,0.117,0.38,0.292l-0.38-0.614V9.008z"/>
		<path d="M62.484,14.881c1.635-0.73,2.688-1.228,3.184-1.432c-0.205,0.642-0.526,1.402-0.993,2.25
			c0.789-1.11,1.286-1.811,1.52-2.104c0.029-0.059,0.087-0.117,0.176-0.146c0.174,0.117,0.35,0.351,0.525,0.701l-0.205-0.76
			c0.146,0.029,0.292,0.088,0.496,0.233l-0.612-0.584l-0.409-1.549c-0.03,0.117-0.088,0.234-0.146,0.321
			c-0.087,0.146-0.146,0.292-0.234,0.438C65.201,13.041,64.091,13.917,62.484,14.881z"/>
		<path d="M91.322,51.434c-0.116-0.146-0.174-0.38-0.203-0.672l-0.09,0.643c-0.116-0.088-0.232-0.176-0.349-0.322l0.349,0.643
			L90.913,53.1c0.059-0.087,0.146-0.175,0.235-0.263c0.058-0.058,0.174-0.146,0.29-0.234c0.731-0.526,1.843-0.906,3.419-1.228
			c-1.518,0.146-2.513,0.234-2.98,0.263c0.322-0.467,0.818-0.964,1.434-1.519c-0.966,0.672-1.579,1.081-1.813,1.256
			C91.438,51.405,91.381,51.405,91.322,51.434z"/>
		<path d="M91.877,53.684l-1.108,1.636c0.76-0.292,1.956-0.146,3.593,0.438c-1.228-0.584-2.017-0.935-2.308-1.11
			C91.703,54.473,91.674,54.151,91.877,53.684z"/>
		<path d="M90.214,48.775l0.319,1.578c0.029-0.088,0.087-0.205,0.147-0.292c0.088-0.146,0.175-0.263,0.291-0.379
			c0.644-0.818,1.782-1.607,3.477-2.425c-1.694,0.614-2.745,0.994-3.271,1.198c0.203-0.613,0.583-1.314,1.138-2.162
			c-0.877,1.023-1.431,1.695-1.663,1.958c-0.061,0.058-0.119,0.117-0.177,0.146c-0.204-0.146-0.322-0.351-0.468-0.702l0.146,0.76
			c-0.146-0.058-0.319-0.146-0.468-0.263L90.214,48.775z"/>
		<path d="M77.824,9.885c-0.029,0.029-0.089,0.087-0.146,0.146c-0.176-0.146-0.381-0.351-0.525-0.702l0.204,0.76
			c-0.146-0.029-0.322-0.117-0.497-0.263l0.584,0.584l0.409,1.549c0.029-0.117,0.088-0.205,0.176-0.321
			c0.029-0.146,0.116-0.263,0.233-0.38c0.585-0.847,1.666-1.724,3.301-2.659c-1.635,0.73-2.716,1.198-3.185,1.432
			c0.146-0.672,0.498-1.374,0.994-2.25C78.554,8.862,78.028,9.563,77.824,9.885z"/>
		<path d="M78.408,19.965c-0.584,0.263-1.082-0.058-1.461-0.876l0.905,3.331c0.468-1.315,2.018-2.717,4.647-4.266
			C80.337,19.118,78.992,19.731,78.408,19.965z"/>
		<path d="M77.326,23.91l0.526,1.899c0.234-0.76,1.169-1.578,2.688-2.426c-1.255,0.555-2.044,0.876-2.396,1.023
			C77.824,24.524,77.532,24.377,77.326,23.91z"/>
		<path d="M78.378,29.023c-0.525,0.234-0.992-0.029-1.372-0.847l0.818,2.98l-0.848,1.461c0.818-0.409,2.191-0.351,4.148,0.175
			c-1.461-0.555-2.366-0.905-2.747-1.051c-0.35-0.146-0.438-0.438-0.35-0.847c0.584-1.11,2.016-2.309,4.179-3.565
			C80.19,28.234,78.934,28.79,78.378,29.023z"/>
		<path d="M78.262,35.042c-0.584,0.058-0.965-0.322-1.109-1.168v3.243c0.759-1.052,2.482-1.987,5.258-2.718
			C80.22,34.75,78.847,34.955,78.262,35.042z"/>
		<path d="M78.145,39.571c-0.263-0.204-0.263-0.497,0-0.935l-1.257,1.315c0.674-0.146,1.755,0.205,3.156,1.023
			C79.052,40.214,78.408,39.747,78.145,39.571z"/>
		<path d="M78.174,37.876c-0.468-0.059-0.672-0.409-0.612-1.11l-0.644,2.483c0.76-0.643,2.278-0.994,4.587-1.023
			C79.752,38.052,78.643,37.935,78.174,37.876z"/>
		<path d="M78.408,42.493c-0.438,0.205-0.818-0.029-1.082-0.643l0.645,2.455c0.35-0.964,1.519-2.017,3.476-3.156
			C79.84,41.851,78.816,42.289,78.408,42.493z"/>
		<path d="M77.386,45.854c0.555-0.467,1.666-0.672,3.272-0.672c-1.228-0.146-2.046-0.234-2.367-0.292
			c-0.32-0.029-0.467-0.292-0.438-0.76L77.386,45.854z"/>
		<path d="M65.23,82.261c-0.583-0.088-1.987-0.264-4.178-0.613c2.776,0.759,4.5,1.635,5.259,2.688V81.12
			C66.166,81.968,65.815,82.348,65.23,82.261z"/>
		<path d="M89.366,42.435l-0.031-0.029c-0.671,0.964-1.138,1.578-1.344,1.87c-0.116-0.439-0.175-1.023-0.175-1.695
			c-0.087,0.935-0.174,1.548-0.174,1.782c-0.029,0.059-0.029,0.117-0.061,0.146c-0.175,0-0.378-0.088-0.555-0.234l0.38,0.409
			c-0.087,0.03-0.232,0.03-0.38,0.03l0.555,0.117l0.789,0.818c-0.029-0.088-0.029-0.175-0.029-0.263c0-0.117,0-0.205,0.029-0.322
			C88.43,44.363,88.751,43.516,89.366,42.435z"/>
		<path d="M84.427,45.912c-0.264,0.555-0.583,0.76-0.935,0.584c-0.409-0.146-1.285-0.526-2.688-1.169
			c1.725,0.994,2.746,1.929,3.039,2.776L84.427,45.912z"/>
		<path d="M82.762,49.243c0.087,0.175,0.087,0.35,0.058,0.496c-0.029,0-0.087,0-0.146,0c-0.205-0.029-0.702-0.088-1.521-0.233
			c0.586,0.146,1.024,0.321,1.376,0.526c-0.322,0.117-0.967,0.351-1.959,0.76c1.082-0.322,1.93-0.409,2.513-0.292
			c0.088,0,0.204,0.03,0.293,0.059c0.088,0.029,0.146,0.058,0.232,0.088l-0.525-0.848v-0.497c0,0.146-0.028,0.233-0.087,0.321
			L82.762,49.243z"/>
		<path d="M83.464,45.708l1.956-1.14c-0.584,0.175-0.935,0.117-1.08-0.263c-0.177-0.38-0.525-1.286-1.053-2.718
			C83.785,43.487,83.844,44.86,83.464,45.708z"/>
		<path d="M80.658,70.865c-1.725-0.321-2.806-0.497-3.272-0.584c-0.468-0.088-0.643-0.468-0.526-1.169l-0.848,2.425
			C76.83,70.953,78.378,70.719,80.658,70.865z"/>
		<path d="M79.052,73.494c-0.994-0.817-1.55-1.344-1.812-1.548c-0.233-0.233-0.233-0.526,0.058-0.905l-1.344,1.198
			C76.655,72.15,77.678,72.56,79.052,73.494z"/>
		<path d="M80.424,73.758c-1.665,0.613-2.718,0.993-3.155,1.139c-0.438,0.146-0.76-0.087-1.022-0.729l0.468,2.483
			C77.123,75.715,78.378,74.751,80.424,73.758z"/>
		<path d="M79.343,77.731c-1.256-0.234-2.017-0.38-2.337-0.438c-0.351-0.116-0.468-0.351-0.381-0.818l-0.613,1.695
			C76.597,77.761,77.706,77.614,79.343,77.731z"/>
		<path d="M77.706,53.187c-0.174-0.117-0.233-0.292-0.174-0.526c0.438-0.642,1.314-1.315,2.688-1.987
			c-1.228,0.467-2.046,0.731-2.367,0.848c-0.351,0.117-0.613-0.088-0.818-0.555l0.381,1.841l-0.585,0.848
			c0.526-0.205,1.344-0.117,2.513,0.263C78.496,53.538,77.94,53.304,77.706,53.187z"/>
		<path d="M77.735,63.297c0.673-1.082,2.135-2.163,4.413-3.302c-2.075,0.789-3.39,1.256-3.945,1.432
			c-0.584,0.205-0.993-0.088-1.285-0.906l0.584,3.01l-0.964,1.432c0.877-0.351,2.249-0.176,4.148,0.467
			c-1.431-0.672-2.337-1.082-2.688-1.286C77.678,63.969,77.59,63.706,77.735,63.297z"/>
		<path d="M63.915,26.54c0.585,0.584,1.023,1.14,1.315,1.637c-0.467-0.088-1.431-0.205-2.921-0.468
			c1.52,0.409,2.601,0.876,3.302,1.461c0.087,0.088,0.205,0.175,0.263,0.292c0.088,0.058,0.146,0.146,0.233,0.233v-1.373
			l0.351-0.614c-0.116,0.146-0.233,0.263-0.351,0.292l-0.029-0.643C66.02,27.65,65.932,27.884,65.815,28
			c-0.058,0-0.118-0.029-0.176-0.058C65.376,27.738,64.851,27.299,63.915,26.54z"/>
		<path d="M65.376,26.481c0.058,0.117,0.146,0.233,0.234,0.379c0.058,0.117,0.117,0.205,0.146,0.321l0.409-1.548l0.614-0.584
			c-0.205,0.146-0.38,0.234-0.498,0.263l0.175-0.76c-0.146,0.351-0.322,0.555-0.525,0.672c-0.059-0.029-0.117-0.088-0.146-0.146
			c-0.234-0.292-0.731-0.993-1.52-2.075c0.467,0.877,0.789,1.578,0.993,2.221c-0.497-0.205-1.549-0.672-3.184-1.402
			C63.682,24.757,64.792,25.634,65.376,26.481z"/>
		<path d="M65.23,35.188c-0.583-0.233-1.958-0.847-4.12-1.812c2.629,1.548,4.208,2.951,4.675,4.266l0.876-3.331
			C66.282,35.13,65.815,35.451,65.23,35.188z"/>
		<path d="M65.201,30.28c-0.35,0.146-1.168,0.438-2.396,0.935c1.666-0.468,2.863-0.526,3.594-0.176l-0.994-1.724
			C65.581,29.812,65.493,30.134,65.201,30.28z"/>
		<path d="M65.435,39.63c-0.321-0.146-1.081-0.468-2.338-1.022c1.52,0.847,2.396,1.665,2.689,2.425l0.497-1.899
			C66.048,39.601,65.786,39.747,65.435,39.63z"/>
		<path d="M66.166,21.251c-0.06-0.321-0.088-0.613-0.088-0.964c0.029-0.876,0.205-1.958,0.526-3.243
			c-0.643,1.636-1.023,2.717-1.228,3.243c0,0.029,0,0.029,0,0.029s0,0,0-0.029c-0.351-0.555-0.614-1.314-0.876-2.25
			c0.175,1.052,0.292,1.812,0.351,2.25c0.029,0.117,0.029,0.205,0.029,0.292s0,0.146,0,0.233c-0.233,0.029-0.526,0-0.847-0.117
			l0.672,0.38c-0.146,0.087-0.322,0.146-0.527,0.204l0.818-0.029l1.403,0.789c-0.058-0.117-0.088-0.205-0.117-0.321
			C66.224,21.572,66.195,21.426,66.166,21.251z"/>
		<path d="M66.633,47.84l-0.818-1.461l0.76-2.98c-0.351,0.818-0.818,1.081-1.345,0.847c-0.555-0.233-1.84-0.789-3.857-1.694
			c2.104,1.197,3.507,2.337,4.12,3.418c0.03,0.059,0.059,0.117,0.088,0.146c0.087,0.409-0.029,0.701-0.322,0.847
			c-0.379,0.146-1.344,0.497-2.805,1.052C64.412,47.489,65.815,47.431,66.633,47.84z"/>
		<path d="M64.062,94.269c0.585,0.556,1.023,1.111,1.315,1.608c-0.497-0.059-1.461-0.205-2.952-0.468
			c1.52,0.438,2.63,0.905,3.332,1.461c0.087,0.088,0.175,0.175,0.263,0.292c0.087,0.087,0.146,0.176,0.233,0.233v-1.374l0.351-0.612
			c-0.146,0.146-0.233,0.263-0.351,0.321l-0.029-0.672c-0.058,0.291-0.146,0.525-0.292,0.672c-0.059-0.029-0.088-0.059-0.146-0.088
			C65.523,95.438,64.967,95,64.062,94.269z"/>
		<path d="M65.552,97.016c0.176,0.498,0.087,0.848-0.204,0.965c-0.38,0.146-1.17,0.438-2.425,0.935
			c1.694-0.467,2.893-0.525,3.593-0.176L65.552,97.016z"/>
		<path d="M77.532,103.971c0,0.058-0.06,0.116-0.117,0.146c-0.205-0.116-0.409-0.321-0.527-0.672l0.176,0.76
			c-0.116-0.03-0.292-0.117-0.496-0.264l0.585,0.585l0.409,1.548c0.028-0.087,0.087-0.204,0.174-0.32
			c0.06-0.146,0.146-0.263,0.264-0.381c0.555-0.847,1.636-1.724,3.273-2.658c-1.638,0.73-2.719,1.227-3.186,1.402
			c0.175-0.644,0.496-1.344,0.993-2.191C78.291,102.977,77.765,103.678,77.532,103.971z"/>
		<path d="M77.443,108.353c0.089-0.116,0.176-0.204,0.292-0.291c0.673-0.556,1.783-1.053,3.331-1.462
			c-1.519,0.263-2.513,0.379-2.979,0.468c0.291-0.496,0.729-1.052,1.344-1.606c-0.906,0.729-1.49,1.168-1.753,1.373
			c-0.059,0.028-0.116,0.058-0.146,0.087c-0.146-0.146-0.235-0.38-0.293-0.672v0.672c-0.146-0.059-0.233-0.176-0.352-0.321
			l0.352,0.614v1.373C77.297,108.499,77.356,108.44,77.443,108.353z"/>
		<path d="M77.94,108.206l-0.993,1.725c0.701-0.351,1.929-0.292,3.623,0.175c-1.285-0.496-2.074-0.789-2.426-0.935
			C77.824,109.024,77.735,108.704,77.94,108.206z"/>
		<path d="M77.882,118.521c-0.35,0.118-0.613-0.028-0.848-0.496l0.527,1.899c0.263-0.76,1.168-1.578,2.688-2.426
			C79.021,118.054,78.203,118.374,77.882,118.521z"/>
		<path d="M77.562,116.534c0.467-1.314,2.016-2.718,4.646-4.267c-2.163,0.965-3.507,1.578-4.092,1.812
			c-0.583,0.263-1.081-0.03-1.46-0.876L77.562,116.534z"/>
		<path d="M77.853,124.862c0.644-1.081,1.987-2.191,4.091-3.419c-2.016,0.905-3.301,1.461-3.856,1.724
			c-0.525,0.205-0.993-0.058-1.344-0.848l0.7,2.543H77.853z"/>
		<path d="M81.446,97.951c-0.116-0.293,0.059-0.556,0.525-0.702l-1.811,0.322c0.673,0.292,1.373,1.197,2.075,2.658
			C81.798,99.032,81.534,98.272,81.446,97.951z"/>
		<path d="M89.834,81.12c-0.438,0.118-0.761-0.087-1.024-0.73l0.467,2.483c0.409-0.935,1.666-1.898,3.712-2.893
			C91.322,80.595,90.271,80.975,89.834,81.12z"/>
		<path d="M89.569,83.487c-0.351-0.059-0.438-0.321-0.38-0.788l-0.583,1.693c0.554-0.408,1.665-0.583,3.3-0.467
			C90.681,83.721,89.892,83.575,89.569,83.487z"/>
		<path d="M83.638,97.016c-0.351-0.292-0.322-0.729,0.087-1.257l-1.897,1.666c1.021-0.087,2.455,0.468,4.353,1.753
			C84.836,98.039,83.989,97.338,83.638,97.016z"/>
		<path d="M88.226,88.98c-0.145-0.438,0.088-0.76,0.731-1.022l-2.484,0.496c0.906,0.409,1.898,1.637,2.923,3.682
			C88.751,90.472,88.371,89.419,88.226,88.98z"/>
		<path d="M78.876,81.384c-0.293-0.38-0.146-0.76,0.438-1.169l-2.309,1.11c1.022,0.146,2.279,1.081,3.799,2.805
			C79.781,82.699,79.109,81.764,78.876,81.384z"/>
		<path d="M90.652,64.057c0.438-0.613,1.314-1.227,2.629-1.899c-1.257,0.467-2.075,0.76-2.426,0.876
			c-0.322,0.117-0.584-0.088-0.761-0.584l0.352,1.958C90.504,64.291,90.562,64.174,90.652,64.057z"/>
		<path d="M90.769,67.651c-0.586,0.205-0.995-0.117-1.286-0.906l0.584,3.009l-0.935,1.403c0.847-0.321,2.22-0.146,4.12,0.467
			c-1.433-0.643-2.339-1.081-2.689-1.256c-0.319-0.175-0.38-0.438-0.262-0.848c0.671-1.081,2.133-2.162,4.44-3.301
			C92.666,66.979,91.322,67.475,90.769,67.651z"/>
		<path d="M90.214,73.641c-0.557,0.029-0.908-0.38-0.995-1.228l-0.232,3.214c0.787-0.993,2.629-1.753,5.433-2.337
			C92.199,73.494,90.797,73.611,90.214,73.641z"/>
		<path d="M89.805,77.322c0.029-0.029,0.029-0.029,0.058-0.088l-1.344,1.228c0.555-0.088,1.286,0.175,2.221,0.672
			c0.262,0.146,0.555,0.351,0.876,0.556c-0.264-0.176-0.438-0.351-0.644-0.556c-0.584-0.497-0.964-0.818-1.167-0.964
			C89.569,77.936,89.569,77.644,89.805,77.322z"/>
		<path d="M89.95,76.504c-0.468-0.087-0.645-0.467-0.525-1.169l-0.818,2.426c0.203-0.175,0.525-0.321,0.876-0.438
			c0.877-0.264,2.133-0.351,3.738-0.233C91.497,76.768,90.417,76.592,89.95,76.504z"/>
		<path d="M83.348,69.813c-0.061,0.526-0.265,0.789-0.645,0.76s-1.257-0.058-2.659-0.205c1.783,0.351,2.923,0.847,3.448,1.49
			L83.348,69.813z"/>
		<path d="M82.996,72.91l-0.058-0.059C82.967,72.881,82.967,72.881,82.996,72.91z"/>
		<path d="M82.819,68.118l0.352-1.899c-0.175,0.497-0.468,0.701-0.79,0.584c-0.351-0.146-1.228-0.438-2.511-0.905
			c0.788,0.409,1.46,0.789,1.957,1.169c0.351,0.321,0.642,0.584,0.818,0.905c0.087,0.263,0.028,0.467-0.146,0.526
			c-0.264,0.117-0.818,0.409-1.695,0.818c1.196-0.409,2.073-0.496,2.63-0.292L82.819,68.118z"/>
		<path d="M76.655,66.189l-0.234,3.244c0.789-0.994,2.631-1.783,5.406-2.367c-2.192,0.204-3.594,0.35-4.179,0.379
			C77.063,67.475,76.743,67.037,76.655,66.189z"/>
		<path d="M81.652,51.58c0.291,0.234,0.349,0.468,0.203,0.672c-0.174,0.175-0.554,0.643-1.14,1.403
			c0.847-0.848,1.578-1.345,2.133-1.345L81.652,51.58z"/>
		<path d="M89.979,45.941c0.029-0.087,0.059-0.205,0.088-0.263c0.205-0.584,0.702-1.256,1.491-2.045
			c-0.848,0.673-1.375,1.111-1.607,1.315c-0.029-0.409,0.058-0.876,0.232-1.461c-0.378,0.789-0.613,1.402-0.816,1.782l0.116,0.058
			l0.468,0.848C89.95,46.087,89.95,46.029,89.979,45.941z"/>
		<path d="M82.265,47.958c-0.174,0-0.321-0.03-0.467-0.059c-0.235-0.058-0.789-0.263-1.665-0.643
			c0.583,0.351,1.053,0.672,1.401,0.994c-0.409,0-1.197,0.087-2.454,0.234c1.315,0.029,2.279,0.175,2.921,0.467
			c0.09,0.029,0.206,0.088,0.293,0.146c0.087,0.059,0.146,0.117,0.206,0.175l-0.293-1.081L82.265,47.958z"/>
		<path d="M84.691,42.493c0.992,1.022,1.518,1.841,1.604,2.484l0.818-1.403c-0.29,0.322-0.525,0.409-0.789,0.205
			C86.093,43.604,85.567,43.194,84.691,42.493z"/>
		<path d="M82.001,57.775c0,0.438-0.349,0.701-0.992,0.789l2.513,0.146c-0.789-0.643-1.401-2.016-1.811-4.208
			C81.855,56.197,81.972,57.308,82.001,57.775z"/>
		<path d="M83.083,63.268c-0.116,0.292-0.293,0.409-0.496,0.322c-0.234-0.088-0.731-0.234-1.521-0.526
			c0.818,0.409,1.373,0.818,1.637,1.198c0.059,0.087,0.116,0.146,0.146,0.205L83.083,63.268z"/>
		<path d="M83.083,60.784c0.088-0.029,0.146-0.058,0.232-0.058l-1.108-0.556c0.262,0.205,0.351,0.38,0.203,0.585
			c-0.116,0.175-0.409,0.643-0.905,1.314C82.091,61.398,82.616,60.931,83.083,60.784z"/>
		<path d="M91.497,59.177c-0.468,0.146-0.816-0.117-1.051-0.76l0.496,2.601c0.029-0.087,0.087-0.117,0.116-0.205
			c0.499-0.906,1.695-1.841,3.683-2.805C93.047,58.651,91.967,59.031,91.497,59.177z"/>
		<path d="M81.914,80.127c0.029,0.468-0.322,0.73-0.993,0.818l2.659,0.205c-0.088-0.059-0.146-0.117-0.204-0.176
			c-0.76-0.73-1.314-2.162-1.753-4.266C81.798,78.491,81.885,79.66,81.914,80.127z"/>
		<path d="M83.171,74.283h0.467l-0.409-1.228c0.059,0.409-0.058,0.614-0.319,0.702c-0.322,0.058-0.995,0.176-2.104,0.351
			C81.827,74.05,82.616,74.079,83.171,74.283z"/>
		<path d="M78.583,85.649c-0.029-0.38,0.204-0.555,0.673-0.585l-1.783-0.146c0.409,0.351,0.761,1.053,1.052,2.104
			c0.088,0.292,0.146,0.643,0.234,0.992c-0.029-0.291-0.029-0.613-0.059-0.847C78.612,86.381,78.583,85.913,78.583,85.649z"/>
		<path d="M81.214,89.624c-0.38,0.175-0.644,0.146-0.761-0.117c-0.146-0.263-0.438-0.906-0.905-1.929
			c0.322,0.965,0.496,1.753,0.467,2.338l0.088,0.438L81.214,89.624z"/>
		<path d="M81.389,82.845c-0.029,0.293-0.087,0.584-0.116,0.818c-0.087,0.729-0.177,1.256-0.206,1.519
			c-0.029,0.322-0.32,0.468-0.789,0.438l1.784,0.498c-0.38-0.439-0.586-1.199-0.644-2.251
			C81.389,83.517,81.389,83.195,81.389,82.845z"/>
		<path d="M86.325,92.867c0.061-0.322,0.322-0.468,0.818-0.38l-1.724-0.585c0.293,0.438,0.467,1.228,0.496,2.309
			c0,0.293,0,0.643-0.029,1.022c0.029-0.321,0.09-0.584,0.148-0.847C86.151,93.627,86.238,93.13,86.325,92.867z"/>
		<path d="M71.278,5.561c-0.146,0.059-0.292,0.087-0.467,0.087l0.672,0.088l1.111,0.848c-0.029-0.088-0.06-0.205-0.088-0.322
			c-0.029-0.117-0.029-0.263-0.029-0.409c0-0.847,0.263-2.045,0.877-3.506c-0.73,1.374-1.198,2.221-1.402,2.63
			c-0.235-0.497-0.409-1.198-0.498-2.045c0,1.168,0.029,1.898,0.029,2.22c-0.029,0.087-0.029,0.117-0.029,0.205
			c-0.205,0-0.438-0.088-0.701-0.205L71.278,5.561z"/>
		<path d="M77.795,12.807c-0.146-0.146-0.233-0.38-0.263-0.673v0.673c-0.146-0.059-0.264-0.176-0.38-0.292l0.38,0.584v1.374
			c0.029-0.059,0.087-0.146,0.174-0.234c0.089-0.117,0.205-0.205,0.322-0.263c0.643-0.584,1.753-1.081,3.302-1.46
			c-1.52,0.233-2.483,0.351-2.952,0.438c0.265-0.497,0.702-1.023,1.316-1.607c-0.907,0.73-1.491,1.169-1.724,1.374
			C77.911,12.748,77.853,12.777,77.795,12.807z"/>
		<path d="M75.604,7.109c-0.117,0.292-0.469,0.38-0.965,0.205l1.724,0.964c-0.351-0.701-0.291-1.898,0.176-3.564
			C76.042,5.94,75.749,6.758,75.604,7.109z"/>
		<path d="M78.438,15.057c-0.351-0.146-0.409-0.468-0.234-0.965l-0.993,1.725c0.73-0.351,1.929-0.292,3.624,0.175
			C79.548,15.495,78.759,15.203,78.438,15.057z"/>
		<path d="M69.233,3.661c-0.643,1.168-1.052,1.928-1.228,2.279c-0.175,0.292-0.525,0.292-0.993,0.058l1.578,1.198
			C68.357,6.437,68.562,5.239,69.233,3.661z"/>
		<path d="M61.637,72.881v0.029c0-0.029,0-0.029,0.029-0.029C61.637,72.881,61.637,72.881,61.637,72.881z"/>
		<path d="M61.548,74.692c0,0,0,0,0,0.029c2.017,1.228,3.332,2.367,3.886,3.419c0.088,0.408-0.029,0.701-0.321,0.847
			c-0.38,0.146-1.315,0.497-2.776,1.053c1.958-0.526,3.331-0.585,4.149-0.176l-0.818-1.461l0.76-2.98
			c-0.351,0.789-0.818,1.081-1.344,0.848C64.558,76.065,63.39,75.54,61.548,74.692z"/>
		<path d="M62.133,85.474c2.191,0.03,3.682,0.352,4.442,1.023l-0.673-2.483c0.06,0.701-0.116,1.051-0.583,1.11
			C64.851,85.182,63.799,85.27,62.133,85.474z"/>
		<path d="M61.871,110.397c0,0.03,0,0.03,0,0.06c1.928,1.139,3.155,2.221,3.769,3.214h0.409l0.672-2.571
			c-0.35,0.818-0.847,1.081-1.344,0.877C64.851,111.742,63.682,111.216,61.871,110.397z"/>
		<path d="M62.22,91.523c1.608,0.935,2.689,1.811,3.272,2.658c0.088,0.146,0.176,0.233,0.264,0.38
			c0.058,0.116,0.116,0.234,0.116,0.321l0.438-1.549l0.585-0.556c-0.176,0.118-0.351,0.205-0.497,0.235l0.205-0.731
			c-0.175,0.322-0.322,0.526-0.526,0.643c-0.087-0.028-0.146-0.087-0.176-0.116c-0.205-0.321-0.701-1.022-1.519-2.074
			c0.497,0.847,0.818,1.577,0.994,2.19C64.88,92.75,63.857,92.282,62.22,91.523z"/>
		<path d="M60.409,82.114v-0.029c-1.812,1.462-2.98,2.396-3.448,2.806c-0.526,0.35-1.052,0.204-1.637-0.498l1.724,2.98
			C57.166,86.029,58.276,84.247,60.409,82.114z"/>
		<path d="M62.278,91.29c-0.029-0.03-0.029-0.03-0.029-0.03c-1.52,1.228-2.512,2.046-2.95,2.367
			c-0.498,0.351-0.994,0.204-1.52-0.439l1.52,2.66l-0.438,1.606c0.701-0.584,2.045-0.877,4.062-0.905
			c-1.579-0.146-2.542-0.234-2.951-0.292c-0.351-0.06-0.527-0.322-0.527-0.731C59.708,94.357,60.643,92.954,62.278,91.29z"/>
		<path d="M64.149,94.124v-0.029c-0.058,0.029-0.116,0.029-0.146,0.058C64.033,94.124,64.091,94.124,64.149,94.124z"/>
		<path d="M56.903,73.202c0.029-0.059,0.087-0.116,0.146-0.146c-0.058,0.03-0.116,0.088-0.146,0.117
			c-1.286,1.081-2.133,1.782-2.542,2.075c0-0.643,0.116-1.433,0.379-2.396c-0.497,1.257-0.817,2.075-0.964,2.426
			c-0.029,0.058-0.058,0.116-0.087,0.175c-0.234-0.088-0.469-0.263-0.673-0.525l0.351,0.672c-0.146,0-0.321,0-0.525-0.088
			l0.73,0.409l0.79,1.373c0-0.146,0.029-0.234,0.058-0.351c0.029-0.146,0.087-0.321,0.146-0.468
			C54.887,75.569,55.676,74.459,56.903,73.202z"/>
		<path d="M51.526,70.982c-0.029,2.045-0.321,3.418-0.905,4.12l2.25-0.584c-0.643,0.058-0.965-0.146-1.023-0.556
			S51.702,72.56,51.526,70.982z"/>
		<path d="M50.68,74.692c-0.876,0.088-1.345-0.146-1.432-0.73c-0.058-0.584-0.205-1.987-0.438-4.178
			c-0.029,2.834-0.438,4.792-1.257,5.786L50.68,74.692z"/>
		<path d="M53.806,77.965l0.496,0.497l0.38,1.314c0.029-0.087,0.058-0.175,0.117-0.263c0.058-0.146,0.146-0.263,0.234-0.38
			c0.496-0.672,1.431-1.461,2.805-2.25c-1.403,0.644-2.279,1.022-2.688,1.228c0.117-0.525,0.409-1.169,0.818-1.929
			c-0.701,0.964-1.11,1.549-1.286,1.812c-0.058,0.028-0.116,0.087-0.146,0.116c-0.174-0.088-0.292-0.292-0.438-0.584l0.146,0.643
			C54.127,78.17,53.981,78.082,53.806,77.965z"/>
		<path d="M54.74,81.18c0.584-0.526,1.783-0.76,3.536-0.76c-1.344-0.146-2.191-0.264-2.542-0.293
			c-0.38-0.058-0.525-0.351-0.496-0.876L54.74,81.18z"/>
		<path d="M48.78,76.212c-0.556,0.672-1.052,0.847-1.519,0.497c-0.469-0.381-1.579-1.257-3.273-2.659
			c2.017,2.046,3.069,3.682,3.156,4.996L48.78,76.212z"/>
		<path d="M44.895,78.521l0.409-0.73c-0.146,0.205-0.264,0.321-0.409,0.38v-0.789c-0.088,0.351-0.205,0.643-0.322,0.789
			c-0.087,0-0.145-0.059-0.205-0.088c-0.292-0.205-0.963-0.76-2.016-1.607c0.701,0.672,1.227,1.315,1.548,1.87
			c-0.525-0.087-1.695-0.233-3.448-0.555c1.782,0.525,3.068,1.11,3.857,1.724c0.146,0.117,0.263,0.204,0.321,0.321
			c0.088,0.088,0.176,0.205,0.264,0.292V78.521z"/>
		<path d="M45.157,80.917c-0.058-0.03-0.118-0.03-0.176-0.06c-0.321-0.116-0.963-0.409-2.016-0.877
			c0.701,0.409,1.257,0.818,1.665,1.199c-0.467,0.059-1.46,0.204-2.979,0.35c1.606,0,2.805,0.176,3.593,0.556
			c0.146,0.059,0.263,0.088,0.38,0.176c0.058,0.059,0.146,0.146,0.233,0.175l-0.351-1.315l0.176-0.7
			c-0.058,0.204-0.146,0.291-0.234,0.379l-0.205-0.643C45.273,80.479,45.244,80.711,45.157,80.917z"/>
		<path d="M45.128,82.261c0.292,0.438,0.292,0.759,0,0.964c-0.293,0.233-0.994,0.76-2.046,1.548c1.52-0.876,2.629-1.256,3.419-1.109
			L45.128,82.261z"/>
		<path d="M47.611,90.209V86.73c-0.175,0.936-0.554,1.345-1.168,1.257c-0.643-0.088-2.104-0.321-4.442-0.701
			C44.953,88.104,46.792,89.068,47.611,90.209z"/>
		<path d="M48.487,91.493c-0.087,0.526-0.321,0.76-0.672,0.731c-0.35-0.059-1.197-0.205-2.571-0.409
			c1.695,0.467,2.776,0.993,3.243,1.637V91.493z"/>
		<path d="M48.78,96.753c-0.584-0.087-1.958-0.322-4.15-0.672c2.484,0.672,4.121,1.433,4.998,2.338
			c0.175,0.409,0.145,0.701-0.118,0.935c-0.321,0.233-1.139,0.818-2.396,1.724c1.724-0.994,3.067-1.403,3.973-1.228l-1.197-1.197
			v-3.098C49.744,96.402,49.364,96.812,48.78,96.753z"/>
		<path d="M59.883,87.607c-1.052,0.847-1.695,1.402-2.016,1.637c-0.292,0.175-0.585,0.087-0.935-0.264l0.993,1.666
			C58.014,89.857,58.656,88.834,59.883,87.607z"/>
		<path d="M52.053,104.233l-0.848-3.127c0.087,0.848-0.146,1.314-0.73,1.374c-0.584,0.087-1.988,0.233-4.208,0.467
			C49.159,102.947,51.088,103.386,52.053,104.233z"/>
		<path d="M53.163,108.85c-0.146,0.672-0.438,0.965-0.905,0.905c-0.467-0.087-1.548-0.233-3.272-0.525
			c2.191,0.585,3.593,1.314,4.178,2.162V108.85z"/>
		<path d="M50.242,108.704c1.168-1.17,2.103-1.754,2.834-1.812l-1.579-0.905c0.351,0.292,0.438,0.585,0.235,0.848
			C51.556,107.097,51.059,107.739,50.242,108.704z"/>
		<path d="M52.871,106.22L51.585,104c0.233,0.643,0.116,1.022-0.322,1.226c-0.438,0.205-1.49,0.585-3.097,1.228
			C50.358,105.869,51.935,105.781,52.871,106.22z"/>
		<path d="M53.425,118.55c1.52-0.905,2.689-1.255,3.448-1.11l-1.402-1.401c0.292,0.409,0.292,0.729,0.029,0.964
			C55.208,117.206,54.506,117.732,53.425,118.55z"/>
		<path d="M58.539,121.764c-0.351,0.438-1.257,1.521-2.659,3.243c1.753-1.723,3.214-2.745,4.412-3.038l0.088-0.409l-2.309-1.344
			C58.744,120.771,58.89,121.297,58.539,121.764z"/>
		<path d="M52.987,112.063c-0.292,0.088-1.052,0.38-2.22,0.848c1.577-0.409,2.688-0.468,3.36-0.176l-0.907-1.577
			C53.367,111.625,53.28,111.918,52.987,112.063z"/>
		<path d="M61.811,103.882c-0.321-0.146-0.409-0.438-0.233-0.905l-0.906,1.577c0.643-0.291,1.753-0.233,3.332,0.176
			C62.834,104.263,62.104,103.971,61.811,103.882z"/>
		<path d="M65.668,108.615c-1.257,0.205-2.016,0.352-2.338,0.381c-0.35,0.028-0.555-0.176-0.643-0.644v1.782
			C63.097,109.552,64.091,109.024,65.668,108.615z"/>
		<path d="M64.266,124.395h-1.988c0.527,0.087,0.731,0.321,0.702,0.672c-0.058,0.35-0.175,1.197-0.38,2.542
			C63.068,125.914,63.624,124.833,64.266,124.395z"/>
		<path d="M69.935,125.505l-0.205-0.352l-2.571,0.672c0.847-0.087,1.316,0.205,1.403,0.79c0.087,0.584,0.234,1.957,0.438,4.148
			C69.029,128.31,69.351,126.586,69.935,125.505z"/>
		<path d="M60.205,101.749c0.438-1.227,1.899-2.542,4.354-3.973c-2.016,0.905-3.272,1.46-3.828,1.694
			c-0.525,0.233-0.993-0.06-1.373-0.848L60.205,101.749z"/>
		<path d="M62.776,102.012c-0.672,0.117-1.139,0.205-1.403,0.235c-0.467,0.058-0.759-0.265-0.876-0.907v2.571
			c0.409-0.643,1.286-1.197,2.571-1.664c1.548,1.109,2.484,2.133,2.834,3.097l0.907-3.332c-0.409,0.848-0.876,1.141-1.432,0.907
			c-0.38-0.146-0.994-0.438-1.871-0.848c0.351-0.146,0.76-0.233,1.199-0.352c-0.585,0.089-1.052,0.176-1.461,0.234
			c-0.584-0.234-1.256-0.525-1.986-0.877C61.811,101.399,62.309,101.72,62.776,102.012z"/>
		<path d="M65.581,107.33c-0.292-0.116-0.906-0.38-1.871-0.848c0.409-0.555,0.965-1.227,1.666-1.957
			c-0.965,0.818-1.666,1.402-2.133,1.781c-0.205,0.146-0.38,0.234-0.438,0.322c-0.38,0.321-0.79,0.205-1.228-0.322l1.256,2.192
			c0.029-0.556,0.322-1.198,0.818-1.958c1.228,0.789,2.016,1.49,2.25,2.192l0.498-1.899
			C66.195,107.301,65.902,107.477,65.581,107.33z"/>
	</g>
</g>
</svg>
