<?xml version="1.0" encoding="utf-8"?>
<!-- Generator: Adobe Illustrator 15.0.0, SVG Export Plug-In . SVG Version: 6.00 Build 0)  -->
<!DOCTYPE svg PUBLIC "-//W3C//DTD SVG 1.1//EN" "http://www.w3.org/Graphics/SVG/1.1/DTD/svg11.dtd">
<svg version="1.1" id="Layer_1" xmlns="http://www.w3.org/2000/svg" xmlns:xlink="http://www.w3.org/1999/xlink" x="0px" y="0px"
	 width="144px" height="144px" viewBox="0 0 144 144" enable-background="new 0 0 144 144" xml:space="preserve">
<g>
	<polygon points="100.504,33.304 82.597,44.146 95.727,53.686 	"/>
	<polygon points="102.275,71.232 118.121,57.552 97.261,55.797 	"/>
	<polygon points="46.74,55.797 25.879,57.552 41.725,71.232 	"/>
	<polygon points="61.404,44.146 43.496,33.304 48.273,53.686 	"/>
	<polygon points="72,24.042 63.885,43.34 80.115,43.34 	"/>
	<path d="M72,47.979c-13.562,0-24.558,10.995-24.558,24.559c0,1.431,0.124,2.833,0.359,4.198c1.157,0.043,2.396,0.067,3.736,0.067
		c9.301,0,13.833-1.124,18.631-2.313c5.472-1.356,11.132-2.76,22.292-2.76c1.452,0,2.808,0.024,4.085,0.068
		C96.154,58.577,85.315,47.979,72,47.979z M68.946,69.566c-4.5,1.116-8.411,2.085-16.414,2.159
		C52.959,61.356,61.528,53.052,72,53.052c5.103,0,9.926,1.959,13.583,5.516c2.346,2.281,4.048,5.06,5.005,8.103
		C80.005,66.824,74.147,68.276,68.946,69.566z"/>
	<path d="M114.144,74.95c-5.325-1.321-10.833-0.684-21.683-0.684c-10.851,0-16.357,1.364-21.682,2.686
		c-4.952,1.228-9.63,1.386-19.242,1.386c-9.611,0-14.288-0.158-19.24-1.386c-5.325-1.321-10.832-0.148-21.682-0.148v10.146
		c9.611,0,14.288-1.378,19.24-0.149c5.325,1.32,10.832,1.685,21.682,1.685c10.851,0,16.357-0.364,21.683-1.685
		c4.952-1.229,9.63-2.388,19.241-2.388s14.289-0.843,19.241,0.386c5.325,1.32,10.832,2.686,21.683,2.686V77.337
		C123.773,77.337,119.095,76.178,114.144,74.95z"/>
</g>
</svg>
