<svg version="1.1" id="Layer_1" xmlns="http://www.w3.org/2000/svg" xmlns:xlink="http://www.w3.org/1999/xlink" x="0px" y="0px"
	 width="144px" height="144px" viewBox="0 0 144 144" enable-background="new 0 0 144 144" xml:space="preserve">
<path d="M133.994,99.354c-1.868-1.045-4.191-2.345-8.511-2.345s-6.643,1.3-8.51,2.345c-1.46,0.815-2.424,1.354-4.718,1.354
	c-2.296,0-3.26-0.539-4.719-1.354c-1.866-1.045-4.19-2.345-8.509-2.345c-4.32,0-6.643,1.3-8.51,2.345
	c-1.46,0.815-2.425,1.354-4.72,1.354c-2.294,0-3.258-0.539-4.717-1.354c-1.867-1.045-4.19-2.345-8.509-2.345s-6.643,1.3-8.51,2.345
	c-1.459,0.815-2.423,1.354-4.718,1.354c-2.294,0-3.258-0.539-4.716-1.354c-1.867-1.045-4.191-2.345-8.51-2.345
	c-4.32,0-6.643,1.3-8.51,2.345c-1.459,0.815-2.423,1.354-4.718,1.354c-2.294,0-3.258-0.539-4.717-1.354
	c-1.867-1.045-4.19-2.345-8.51-2.345v7.769c2.295,0,3.259,0.538,4.718,1.355c1.867,1.043,4.19,2.344,8.509,2.344
	c4.32,0,6.643-1.301,8.51-2.344c1.459-0.817,2.423-1.355,4.718-1.355c2.294,0,3.258,0.538,4.718,1.355
	c1.866,1.043,4.19,2.344,8.508,2.344c4.32,0,6.643-1.301,8.51-2.344c1.46-0.817,2.424-1.355,4.718-1.355
	c2.295,0,3.259,0.538,4.717,1.355c1.866,1.043,4.19,2.344,8.509,2.344c4.32,0,6.644-1.301,8.511-2.344
	c1.459-0.817,2.423-1.355,4.719-1.355c2.294,0,3.258,0.538,4.718,1.355c1.867,1.043,4.189,2.344,8.51,2.344
	c4.318,0,6.643-1.301,8.51-2.344c1.458-0.817,2.424-1.355,4.718-1.355c2.295,0,3.259,0.538,4.719,1.355
	c1.867,1.043,4.191,2.344,8.51,2.344v-7.769C136.417,100.708,135.453,100.169,133.994,99.354z"/>
<path d="M36.008,92.461c1.459-0.816,2.423-1.355,4.717-1.355c2.295,0,3.259,0.539,4.718,1.355c1.867,1.044,4.191,2.344,8.51,2.344
	c4.318,0,6.643-1.3,8.509-2.344c1.459-0.816,2.423-1.355,4.718-1.355c2.294,0,3.258,0.539,4.718,1.355
	c1.866,1.044,4.189,2.344,8.509,2.344s6.643-1.3,8.51-2.344c1.46-0.816,2.424-1.355,4.718-1.355c2.295,0,3.259,0.539,4.718,1.355
	c1.867,1.044,4.191,2.344,8.51,2.344c4.32,0,6.644-1.3,8.511-2.344c1.459-0.816,2.423-1.355,4.718-1.355s3.26,0.539,4.718,1.355
	c1.867,1.044,4.191,2.344,8.512,2.344v-7.768c-2.296,0-3.26-0.54-4.72-1.355c-1.867-1.045-4.19-2.345-8.51-2.345
	s-6.643,1.3-8.51,2.345c-1.46,0.815-2.424,1.355-4.719,1.355c-2.294,0-3.258-0.54-4.718-1.355c-1.867-1.045-4.19-2.345-8.51-2.345
	c-4.318,0-6.643,1.3-8.51,2.345c-1.459,0.815-2.423,1.355-4.718,1.355c-2.294,0-3.258-0.54-4.718-1.355
	c-1.866-1.045-4.19-2.345-8.509-2.345c-4.32,0-6.643,1.3-8.51,2.345c-1.459,0.815-2.423,1.355-4.718,1.355
	c-2.294,0-3.258-0.54-4.718-1.355c-1.866-1.045-4.19-2.345-8.51-2.345c-4.318,0-6.643,1.3-8.508,2.345
	c-1.46,0.815-2.424,1.355-4.718,1.355s-3.258-0.54-4.718-1.355c-1.867-1.045-4.19-2.345-8.51-2.345v7.769
	c2.294,0,3.259,0.539,4.718,1.355c1.867,1.044,4.19,2.344,8.509,2.344S34.141,93.505,36.008,92.461z"/>
<path d="M125.739,71.375c-1.868-1.045-4.19-2.345-8.511-2.345c-4.318,0-6.643,1.3-8.51,2.345c-1.46,0.815-2.424,1.355-4.718,1.355
	c-2.295,0-3.259-0.54-4.718-1.355c-1.867-1.045-4.191-2.345-8.51-2.345c-4.319,0-6.643,1.3-8.51,2.345
	c-1.46,0.815-2.424,1.355-4.719,1.355c-2.294,0-3.258-0.54-4.717-1.355c-1.867-1.045-4.191-2.345-8.51-2.345s-6.643,1.3-8.51,2.345
	c-1.459,0.815-2.423,1.355-4.718,1.355c-2.294,0-3.258-0.54-4.717-1.355c-1.867-1.045-4.191-2.345-8.51-2.345
	c-4.32,0-6.643,1.3-8.51,2.345c-1.459,0.815-2.423,1.355-4.718,1.355c-2.294,0-3.258-0.54-4.718-1.355
	c-1.867-1.045-4.19-2.345-8.509-2.345v7.768c2.294,0,3.258,0.539,4.718,1.355c1.867,1.045,4.19,2.345,8.509,2.345
	c4.32,0,6.643-1.3,8.509-2.345c1.459-0.816,2.423-1.355,4.718-1.355c2.294,0,3.258,0.539,4.718,1.355
	c1.866,1.045,4.19,2.345,8.509,2.345c4.32,0,6.643-1.3,8.51-2.345c1.459-0.816,2.424-1.355,4.718-1.355
	c2.295,0,3.259,0.539,4.718,1.355c1.866,1.045,4.189,2.345,8.509,2.345s6.644-1.3,8.511-2.345c1.459-0.816,2.423-1.355,4.718-1.355
	c2.294,0,3.258,0.539,4.718,1.355c1.867,1.045,4.19,2.345,8.51,2.345s6.643-1.3,8.51-2.345c1.459-0.816,2.424-1.355,4.718-1.355
	c2.295,0,3.26,0.539,4.72,1.355c1.867,1.045,4.19,2.345,8.51,2.345V72.73C128.162,72.73,127.198,72.191,125.739,71.375z"/>
</svg>
