<?xml version="1.0" encoding="utf-8"?>
<!-- Generator: Adobe Illustrator 15.0.0, SVG Export Plug-In . SVG Version: 6.00 Build 0)  -->
<!DOCTYPE svg PUBLIC "-//W3C//DTD SVG 1.1//EN" "http://www.w3.org/Graphics/SVG/1.1/DTD/svg11.dtd">
<svg version="1.1" id="Layer_1" xmlns="http://www.w3.org/2000/svg" xmlns:xlink="http://www.w3.org/1999/xlink" x="0px" y="0px"
	 width="144px" height="144px" viewBox="0 0 144 144" enable-background="new 0 0 144 144" xml:space="preserve">
<g>
	<path d="M97.173,22.772c0,0,5.359-0.113,7.849,3.934c4.13,6.712,0.197,11.736,0.197,11.736s7.398,0.594,8.389,8.624
		c0.786,6.376-3.206,9.646-3.206,9.646s5.988,2.713,5.984,9.502c-0.003,5.59-4.687,8.085-4.687,8.085s6.199,7.787-0.768,15.518
		c-5,5.545-12.432,3.059-12.432,3.059s-2.258,8.313-15.156,6.513c-7.564-1.056-9.719-7.013-9.719-7.013S63.334,91.607,61.25,80.584
		c-1.28-6.771,2.432-10.17,2.432-10.17s-4.807-3.009-4.819-7.786c-0.015-5.873,4.325-7.785,4.325-7.785s-3.831-3.461-2.472-8.774
		c1.259-4.922,7.465-6.11,7.465-6.11s-2.893-4.827-0.111-10.079c3.558-6.721,10.072-5.21,10.072-5.21S79.533,14.5,87.624,14.5
		C94.655,14.5,97.173,22.772,97.173,22.772z"/>
	<path d="M46.092,37.417c0,0,1.225-5.458,5.911-5.692c4.687-0.233,5.87,5.013,5.87,5.013s1.419-0.146,2.669,0.805
		c1.31,0.997,1.542,2.042,1.542,2.042s-3.881,2.209-4.674,6.639c-0.838,4.682,1.915,8.28,1.915,8.28s-3.563,2.461-3.646,7.816
		s4.089,8.466,4.089,8.466s-3.269,5.059-1.425,12.09c1.822,6.95,6.739,9.292,6.739,9.292s-1.483,4.303-8.741,4.63
		c-7.279,0.328-8.941-4.803-8.941-4.803s-9.222,6.156-15.479-1.807c-5.483-6.98,0.186-13.285,0.186-13.285s-5.772-2.069-5.08-9.084
		c0.62-6.284,6.625-7.826,6.625-7.826s-4.669-3.031-2.815-8.778c1.65-5.115,7.347-5.146,7.347-5.146s-0.886-3.584,1.095-5.971
		C42.321,36.428,46.092,37.417,46.092,37.417z"/>
	<path d="M51.729,98.667c0,0,0.937,0.376,2.292,0.562c2.271,0.312,3.864,0.052,3.864,0.052s0.009,6.002,0.482,12.615
		c0.451,6.307,1.358,12.867,1.712,14.254c0.336,1.322,0.662,2.459-1.139,2.459h-9.502c-1.213,0-1.204-0.998-0.835-2.387
		c0.525-1.979,1.726-10.014,1.854-14.389c0.127-4.373,0.327-12.518,0.386-13.396C50.859,98.202,51.072,98.452,51.729,98.667z"/>
	<path d="M91.225,102.054c0,0-1.49,0.399-3.459,0.478c-2.099,0.083-3.712-0.135-4.328-0.219c-0.344-0.047-0.375,0.402-0.381,0.547
		c-0.039,0.958-0.137,4.899-0.391,9.391c-0.438,7.75-1.309,13.777-1.719,15.188c-0.38,1.316-0.639,2.062,0.552,2.062h12.568
		c0.557,0,0.766-0.792,0.278-1.956c-0.752-1.797-1.41-9.983-1.741-15.361c-0.277-4.512-0.361-9.169-0.349-10.08
		C92.263,101.646,91.896,101.862,91.225,102.054z"/>
</g>
</svg>
